<svg xmlns="http://www.w3.org/2000/svg" width="38.067" height="27.585" viewBox="0 0 38.067 27.585">
  <g id="breakfast" transform="translate(-16 -112)">
    <path id="Path_85" data-name="Path 85" d="M160.186,200.97a.561.561,0,0,0,.9,0l6.344-7.663a.883.883,0,0,0,0-1.084.561.561,0,0,0-.9,0l-6.344,7.663A.883.883,0,0,0,160.186,200.97Z" transform="translate(-132.58 -72.337)" fill="#394c4f"/>
    <path id="Path_86" data-name="Path 86" d="M210.723,256.224l-2.538,3.065a.883.883,0,0,0,0,1.084.561.561,0,0,0,.9,0l2.538-3.065a.883.883,0,0,0,0-1.084A.561.561,0,0,0,210.723,256.224Z" transform="translate(-176.773 -130.207)" fill="#394c4f"/>
    <path id="Path_87" data-name="Path 87" d="M152.634,188.6a.583.583,0,0,0,.449-.224l2.538-3.065a.883.883,0,0,0,0-1.084.561.561,0,0,0-.9,0l-2.538,3.065a.886.886,0,0,0-.138.835A.646.646,0,0,0,152.634,188.6Z" transform="translate(-125.214 -65.104)" fill="#394c4f"/>
    <path id="Path_88" data-name="Path 88" d="M51.529,124.26H50.26v-.766a.71.71,0,0,0-.634-.766H39.475V121.1c1.446-.427,2.538-2.285,2.538-4.505,0-2.535-1.423-4.6-3.172-4.6H19.172C17.423,112,16,114.062,16,116.6c0,2.22,1.092,4.078,2.538,4.505v13.885h-1.9a.71.71,0,0,0-.634.766c0,2.115,1.421,3.829,3.172,3.831H50.895c1.751,0,3.17-1.716,3.172-3.831a.71.71,0,0,0-.634-.766h-5.3a7.055,7.055,0,0,0,1.8-3.065h1.6a2.842,2.842,0,0,0,2.538-3.065v-1.532A2.842,2.842,0,0,0,51.529,124.26ZM23.613,113.533H38.84c1.049,0,1.9,1.375,1.9,3.065s-.854,3.065-1.9,3.065a.71.71,0,0,0-.634.766v2.3H36.937a.71.71,0,0,0-.634.766v6.13a7.563,7.563,0,0,0,1.9,5.141v.223H24.248V120.429a.71.71,0,0,0-.634-.766c-1.049,0-1.9-1.375-1.9-3.065S22.564,113.533,23.613,113.533ZM17.269,116.6c0-1.69.854-3.065,1.9-3.065h2.079a5.882,5.882,0,0,0-.81,3.065c0,2.22,1.092,4.078,2.538,4.505v13.885H19.807V120.429a.71.71,0,0,0-.634-.766C18.123,119.663,17.269,118.288,17.269,116.6Zm35.42,19.923a1.967,1.967,0,0,1-1.795,1.533H19.172a1.967,1.967,0,0,1-1.795-1.533Zm-3.7-6.9c0,2.961-1.99,5.36-4.441,5.364H42.012c-2.453,0-4.442-2.4-4.441-5.364V124.26h11.42Zm3.807-.766a1.421,1.421,0,0,1-1.269,1.533h-1.3q.036-.382.036-.766v-3.831h1.269a1.421,1.421,0,0,1,1.269,1.533Z" transform="translate(0 0)" fill="#394c4f"/>
    <path id="Path_89" data-name="Path 89" d="M365.6,149.364a.646.646,0,1,0,1.269,0,.645.645,0,0,1,.1-.372,2.539,2.539,0,0,0,0-2.321.742.742,0,0,1,0-.744,2.373,2.373,0,0,0,.281-1.161.646.646,0,1,0-1.269,0,.645.645,0,0,1-.1.372,2.538,2.538,0,0,0,0,2.321.743.743,0,0,1,0,.744A2.372,2.372,0,0,0,365.6,149.364Z" transform="translate(-321.872 -28.935)" fill="#394c4f"/>
    <path id="Path_90" data-name="Path 90" d="M413.6,149.364a.646.646,0,1,0,1.269,0,.646.646,0,0,1,.1-.372,2.538,2.538,0,0,0,0-2.321.743.743,0,0,1,0-.744,2.372,2.372,0,0,0,.281-1.161.646.646,0,1,0-1.269,0,.645.645,0,0,1-.1.372,2.538,2.538,0,0,0,0,2.321.743.743,0,0,1,0,.744A2.373,2.373,0,0,0,413.6,149.364Z" transform="translate(-366.066 -28.935)" fill="#394c4f"/>
  </g>
</svg>
