<svg id="cake_black_24dp" xmlns="http://www.w3.org/2000/svg" width="32" height="32" viewBox="0 0 32 32">
  <path id="Path_11" data-name="Path 11" d="M0,0H32V32H0Z" fill="none"/>
  <path id="Path_12" data-name="Path 12" d="M16,8.182a2.811,2.811,0,0,0,2.889-2.727,2.489,2.489,0,0,0-.419-1.4L16,0,13.53,4.05a2.489,2.489,0,0,0-.419,1.4A2.82,2.82,0,0,0,16,8.182ZM22.644,21.8,21.1,20.345,19.539,21.8a5.34,5.34,0,0,1-7.063,0L10.93,20.345,9.356,21.8a5.114,5.114,0,0,1-3.524,1.377A5.228,5.228,0,0,1,3,22.35v6.286A1.41,1.41,0,0,0,4.444,30H27.556A1.41,1.41,0,0,0,29,28.636V22.35a5.228,5.228,0,0,1-2.831.832A5.114,5.114,0,0,1,22.644,21.8Zm2.022-9.532H17.444V9.545H14.556v2.727H7.333A4.212,4.212,0,0,0,3,16.364v2.1a2.76,2.76,0,0,0,2.831,2.673,2.858,2.858,0,0,0,1.993-.777l3.091-2.9,3.077,2.9a3.023,3.023,0,0,0,4,0l3.091-2.9,3.077,2.9a2.883,2.883,0,0,0,1.993.777,2.76,2.76,0,0,0,2.831-2.673v-2.1A4.19,4.19,0,0,0,24.667,12.273Z" transform="translate(0)" fill="#394c4f"/>
</svg>
