<svg id="photo_camera_black_24dp" xmlns="http://www.w3.org/2000/svg" width="43.177" height="39.501" viewBox="0 0 43.177 39.501">
  <path id="Path_3" data-name="Path 3" d="M0,0H39.5V39.5H0Z" transform="translate(1.838 0)" fill="none"/>
  <ellipse id="Ellipse_15" data-name="Ellipse 15" cx="6.908" cy="6.908" rx="6.908" ry="6.908" transform="translate(14.68 14.68)" fill="#394c4f"/>
  <path id="Path_4" data-name="Path 4" d="M17.112,2,13.161,6.318H6.318A4.33,4.33,0,0,0,2,10.635V36.542a4.33,4.33,0,0,0,4.318,4.318H40.859a4.33,4.33,0,0,0,4.318-4.318V10.635a4.33,4.33,0,0,0-4.318-4.318H34.016L30.065,2Zm6.477,32.383A10.794,10.794,0,1,1,34.383,23.589,10.8,10.8,0,0,1,23.589,34.383Z" transform="translate(-2 -2)" fill="#394c4f"/>
</svg>
