<svg id="people_black_24dp" xmlns="http://www.w3.org/2000/svg" width="18" height="18" viewBox="0 0 18 18">
  <path id="Path_13" data-name="Path 13" d="M0,0H18V18H0Z" fill="none"/>
  <path id="Path_14" data-name="Path 14" d="M12.25,9.5A2.25,2.25,0,1,0,10,7.25,2.241,2.241,0,0,0,12.25,9.5Zm-6,0A2.25,2.25,0,1,0,4,7.25,2.241,2.241,0,0,0,6.25,9.5Zm0,1.5C4.5,11,1,11.877,1,13.625V15.5H11.5V13.625C11.5,11.877,8,11,6.25,11Zm6,0c-.218,0-.465.015-.728.038A3.165,3.165,0,0,1,13,13.625V15.5h4.5V13.625C17.5,11.877,14,11,12.25,11Z" transform="translate(-0.25 -1.25)" fill="#4e4e4e"/>
</svg>
